HIERARCHY
ROOT Hips
{
    OFFSET 0 0 0
    CHANNELS 6 Xposition Yposition Zposition Zrotation Yrotation Xrotation
    JOINT Chest
    {
        OFFSET 1.261052E-14 2.2 9.616505E-08
        CHANNELS 3 Zrotation Yrotation Xrotation
        JOINT Chest2
        {
            OFFSET 0 2.866667 0
            CHANNELS 3 Zrotation Yrotation Xrotation
            JOINT Neck
            {
                OFFSET 0 1.433333 0
                CHANNELS 3 Zrotation Yrotation Xrotation
                JOINT Head
                {
                    OFFSET -5.955877E-09 1.099063 -0.0454182
                    CHANNELS 3 Zrotation Yrotation Xrotation
                    End Site
                    {
                        OFFSET 1.742161E-07 0.215971 1.988305
                    }
                }
            }
            JOINT LeftCollar
            {
                OFFSET 0.6 0.333333 -7.86805E-08
                CHANNELS 3 Zrotation Yrotation Xrotation
                JOINT LeftShoulder
                {
                    OFFSET 1.399785 0.02316189 0.008118234
                    CHANNELS 3 Zrotation Yrotation Xrotation
                    JOINT LeftElbow
                    {
                        OFFSET 2.28797 0.1912422 -0.1364633
                        CHANNELS 3 Zrotation Yrotation Xrotation
                        JOINT LeftWrist
                        {
                            OFFSET 2.775776 0.232193 0.2848766
                            CHANNELS 3 Zrotation Yrotation Xrotation
                            End Site
                            {
                                OFFSET 0.9913487 0.0829258 0.1017416
                            }
                        }
                    }
                }
            }
            JOINT RightCollar
            {
                OFFSET -0.6 0.333333 7.86805E-08
                CHANNELS 3 Zrotation Yrotation Xrotation
                JOINT RightShoulder
                {
                    OFFSET -1.399785 0.02316189 0.008118574
                    CHANNELS 3 Zrotation Yrotation Xrotation
                    JOINT RightElbow
                    {
                        OFFSET -2.28797 0.1912422 -0.136463
                        CHANNELS 3 Zrotation Yrotation Xrotation
                        JOINT RightWrist
                        {
                            OFFSET -2.775776 0.232193 0.2848771
                            CHANNELS 3 Zrotation Yrotation Xrotation
                            End Site
                            {
                                OFFSET -0.9913487 0.0829258 0.1017418
                            }
                        }
                    }
                }
            }
        }
    }
    JOINT LeftHip
    {
        OFFSET 0.9032136 0.1000166 0.0003561888
        CHANNELS 3 Zrotation Yrotation Xrotation
        JOINT LeftKnee
        {
            OFFSET 0.09757304 -3.66482 0.4995777
            CHANNELS 3 Zrotation Yrotation Xrotation
            JOINT LeftAnkle
            {
                OFFSET 0.1137198 -4.272043 -0.4761516
                CHANNELS 3 Zrotation Yrotation Xrotation
                End Site
                {
                    OFFSET -1 0 8.754432E-08
                }
            }
        }
    }
    JOINT RightHip
    {
        OFFSET -0.9032136 0.1000166 0.0003564245
        CHANNELS 3 Zrotation Yrotation Xrotation
        JOINT RightKnee
        {
            OFFSET -0.09757292 -3.66482 0.4995777
            CHANNELS 3 Zrotation Yrotation Xrotation
            JOINT RightAnkle
            {
                OFFSET -0.1137199 -4.272043 -0.4761516
                CHANNELS 3 Zrotation Yrotation Xrotation
                End Site
                {
                    OFFSET -1 0 8.754432E-08
                }
            }
        }
    }
}
MOTION
Frames:    10
Frame Time:    0.016667
0.136067    8.20685    0.001574907    -176.4536    0.6618374    -179.959    2.373325    0.8867915    -6.321499    -0.8752955    -0.05525766    -4.708221    0.06144127    0.5787573    8.256876    -0.1262825    3.052897    37.15322    -0.8824701    0.2817062    -0.004679692    -3.994743    0.8953499    -13.15946    -0.001129253    -1.54155    0.1289105    -9.811975E-08    -7.295791E-08    -1.118184E-06    2.189015    0.4376089    0.006879663    10.52717    2.68256    -23.7866    0.006521853    3.268463    0.2735347    -2.069343E-07    -5.594026E-08    3.793538E-07    7.351467    -3.328588    -7.632677    0.222569    0.7944261    31.38316    -1.934592    -5.50038    -20.38377    -3.68855    19.69476    -10.44581    -0.2369942    -0.8176284    32.40951    4.846273    6.771512    -15.78973
0.1358132    8.207076    0.002222652    -176.4523    0.6615366    -179.9429    2.370378    0.8667186    -6.326428    -0.8786071    -0.05177965    -4.700202    0.06185143    0.5789018    8.259048    -0.1270628    3.071738    37.15708    -0.8752477    0.2757157    -0.004589624    -3.963956    0.8825693    -13.184    -0.001127555    -1.54119    0.1288804    9.966808E-08    3.287888E-08    7.406002E-07    2.187431    0.4373655    0.006795015    10.51611    2.700037    -23.76692    0.006479271    3.258946    0.2727343    2.484015E-07    -2.110532E-07    7.091674E-07    7.353213    -3.314991    -7.650875    0.2225196    0.7943452    31.3796    -1.93987    -5.49113    -20.37134    -3.689541    19.72537    -10.46274    -0.2372208    -0.8179859    32.42541    4.875031    6.693559    -15.77299
0.1351043    8.207737    0.004053884    -176.4484    0.660818    -179.8964    2.362224    0.8077807    -6.340104    -0.8880031    -0.04159395    -4.676676    0.06304175    0.5792959    8.264682    -0.1293311    3.126464    37.16479    -0.8561389    0.2585307    -0.004330468    -3.88275    0.8472353    -13.25273    -0.0011282    -1.540829    0.1288493    2.118449E-07    9.288832E-08    1.047676E-06    2.184038    0.4369082    0.006557902    10.49079    2.751145    -23.70945    0.006366533    3.233403    0.2705971    2.22053E-07    1.507329E-07    -5.273615E-07    7.358388    -3.275505    -7.702505    0.2223621    0.7940869    31.36824    -1.955363    -5.464289    -20.33506    -3.693422    19.80447    -10.51201    -0.2378688    -0.8190065    32.47089    4.955924    6.47717    -15.72395
0.1340186    8.208806    0.006900599    -176.4422    0.6599613    -179.8223    2.349895    0.7118843    -6.36086    -0.9027172    -0.02505977    -4.638503    0.0649533    0.5798839    8.272468    -0.1329754    3.214397    37.17048    -0.8289154    0.2313323    -0.003927278    -3.767437    0.7935023    -13.35831    -0.001127224    -1.54071    0.1288401    2.738025E-08    9.636287E-08    8.053026E-07    2.181078    0.4366092    0.006192167    10.46237    2.834385    -23.61611    0.006203043    3.195487    0.2674159    3.489523E-07    4.989976E-08    -6.182545E-08    7.366862    -3.21211    -7.783635    0.2220969    0.7936515    31.34907    -1.980511    -5.421234    -20.27694    -3.701599    19.91301    -10.59149    -0.2388981    -0.8206227    32.54286    5.081052    6.148593    -15.64476
0.1326346    8.210258    0.01059477    -176.4337    0.6592395    -179.7233    2.334447    0.5809393    -6.387033    -0.9220197    -0.002526619    -4.586468    0.06752607    0.5806164    8.28105    -0.137887    3.332845    37.16819    -0.7973918    0.1953062    -0.003420473    -3.634264    0.7255667    -13.49329    -0.001128796    -1.541189    0.1288801    -2.848174E-07    5.538673E-08    -1.447834E-08    2.180667    0.4368644    0.005695311    10.44243    2.947966    -23.48913    0.006008574    3.149364    0.2635483    1.113103E-07    -2.785631E-07    1.345459E-06    7.378445    -3.126781    -7.89025    0.2217217    0.7930332    31.32191    -2.014734    -5.363318    -20.19895    -3.715476    20.03189    -10.6987    -0.2402537    -0.8227443    32.63755    5.242661    5.734116    -15.53732
0.1310305    8.212067    0.01496837    -176.423    0.6589249    -179.6022    2.316929    0.4168273    -6.416958    -0.9452244    0.02566638    -4.521437    0.07070202    0.581448    8.289075    -0.1439534    3.479124    37.15201    -0.7653292    0.1516065    -0.002828679    -3.499154    0.6472229    -13.65033    -0.001129899    -1.542091    0.1289567    3.407105E-07    5.08142E-08    7.636078E-07    2.184953    0.4380738    0.0050868    10.4424    3.090147    -23.33054    0.005800609    3.099347    0.2593548    7.690418E-08    5.169236E-08    -9.364946E-07    7.392919    -3.02146    -8.018346    0.2212337    0.7922302    31.2866    -2.057431    -5.291924    -20.10303    -3.736414    20.14203    -10.83149    -0.2418966    -0.8253087    32.75186    5.432965    5.26007    -15.40375
0.1292844    8.214211    0.01985339    -176.4105    0.6593114    -179.4616    2.298388    0.2214336    -6.448982    -0.9716654    0.05918386    -4.44424    0.0744198    0.5823445    8.295183    -0.1510641    3.650543    37.11604    -0.7364272    0.1013338    -0.002175391    -3.378311    0.5626723    -13.822    -0.001133758    -1.544192    0.1291333    -2.07297E-07    -1.912175E-08    4.83498E-09    2.196718    0.4438591    0.004415433    10.47583    3.274779    -23.14094    0.005586841    3.047703    0.255026    -3.7352E-07    1.367607E-07    -7.607098E-07    7.410041    -2.898123    -8.163688    0.2206262    0.7912279    31.24257    -2.108033    -5.208344    -19.99097    -3.765649    20.22431    -10.98742    -0.2437734    -0.8282235    32.88214    5.644086    4.752713    -15.24569
0.1274742    8.216665    0.0250818    -176.3961    0.660678    -179.3045    2.279848    -0.003367537    -6.481448    -1.000702    0.09769401    -4.355725    0.07861524    0.5832731    8.297985    -0.1591101    3.844389    37.05444    -0.7144437    0.04553077    -0.001462604    -3.287598    0.4754319    -14.00091    -0.001140541    -1.54761    0.1294182    -1.263484E-08    -1.798193E-08    -9.034327E-08    2.218399    0.4572408    0.003719064    10.55568    3.512478    -22.9211    0.005386466    2.997376    0.2508102    9.596339E-08    -2.723135E-07    7.810813E-07    7.429592    -2.758721    -8.322303    0.2198983    0.7900252    31.18975    -2.165949    -5.113937    -19.86477    -3.804267    20.25961    -11.16418    -0.245842    -0.8314176    33.02509    5.867934    4.238245    -15.0646
0.1256779    8.219403    0.03048555    -176.38    0.6632975    -179.1334    2.262302    -0.2556866    -6.512694    -1.031708    0.1408626    -4.256737    0.08322049    0.5842065    8.296094    -0.1679751    4.057913    36.96153    -0.7031124    -0.01484225    -0.0006800792    -3.243091    0.3889185    -14.17959    -0.001150471    -1.552885    0.1298595    -2.716244E-08    -6.066941E-08    -5.247049E-07    2.252694    0.4775602    0.002961888    10.69641    3.79605    -22.67355    0.005217777    2.955011    0.2472547    -1.933629E-07    3.935469E-07    -1.735637E-06    7.451376    -2.605222    -8.49015    0.2190474    0.7886159    31.12789    -2.230616    -5.010052    -19.72634    -3.853581    20.22514    -11.35953    -0.2480498    -0.8348127    33.17723    6.095209    3.746269    -14.86102
0.123973    8.2224    0.0358966    -176.3624    0.6674563    -178.9512    2.246703    -0.5336335    -6.541083    -1.064051    0.1883516    -4.148068    0.08815689    0.585129    8.288079    -0.1775506    4.288378    36.83173    -0.7086576    -0.07849034    0.0001891672    -3.271678    0.3077627    -14.35068    -0.001164341    -1.560077    0.1304607    1.676009E-07    -6.063133E-08    -4.475836E-07    2.30154    0.5043476    0.002085787    10.90963    4.119616    -22.40078    0.005106506    2.926546    0.2448687    3.767802E-08    3.654065E-07    -1.526528E-06    7.475229    -2.439592    -8.663125    0.2180689    0.7869909    31.05665    -2.301491    -4.898022    -19.57754    -3.914219    20.1017    -11.57105    -0.2503573    -0.838334    33.33538    6.317236    3.302757    -14.6356
